<svg aria-hidden="true" focusable="false" data-prefix="fad" data-icon="signal-bars-weak" role="img"
    xmlns="http://www.w3.org/2000/svg" viewBox="0 0 640 512">
    <g>
        <path fill="#3bc81e" style="opacity: .4;"
            d="M192 304l0 160c0 26.5 21.5 48 48 48s48-21.5 48-48l0-160c0-26.5-21.5-48-48-48s-48 21.5-48 48zM352 176l0 288c0 26.5 21.5 48 48 48s48-21.5 48-48l0-288c0-26.5-21.5-48-48-48s-48 21.5-48 48zM512 48l0 416c0 26.5 21.5 48 48 48s48-21.5 48-48l0-416c0-26.5-21.5-48-48-48s-48 21.5-48 48z">
        </path>
        <path fill="#3bc81e"
            d="M32 432c0-26.5 21.5-48 48-48s48 21.5 48 48v32c0 26.5-21.5 48-48 48s-48-21.5-48-48V432z"></path>
    </g>
</svg>